# xmcd
#
# Track frame offsets:
#	150
#	15223
#	32520
#	48620
#	60328
#	74935
#	91718
#	110120
#	122015
#	133388
#	150353
#	164543
#
# Disc length: 2402 seconds
#
# Revision: 0
# Processed by: cddbd v1.5.1PL0 Copyright (c) Steve Scherf et al.
# Submitted via: audiograbber 1.83.01
#
DISCID=9e09600c
DTITLE=Socratis Malamas - Kyklos
DYEAR=1900
DGENRE=Greek
TTITLE0=Ta Pagia
TTITLE1=Gia Tin Ellada
TTITLE2=Rififi
TTITLE3=S'agapo
TTITLE4=O Theos
TTITLE5=Dyo Treis Koubentes
TTITLE6=Tis Artas To Gefyri
TTITLE7=To Tragoudi Tou Methysmenou
TTITLE8=Doro Tou Kosmoy
TTITLE9=Tsigaro Ateleioto
TTITLE10=Faltsos Xrhsmos
TTITLE11=Na Rotas
EXTD=
EXTT0=
EXTT1=
EXTT2=
EXTT3=
EXTT4=
EXTT5=
EXTT6=
EXTT7=
EXTT8=
EXTT9=
EXTT10=
EXTT11=
PLAYORDER=
